<svg width="1200" height="720" viewBox="0 0 1200 720" fill="none" xmlns="http://www.w3.org/2000/svg">
  <defs>
    <linearGradient id="g1" x1="150" y1="120" x2="1050" y2="600" gradientUnits="userSpaceOnUse">
      <stop stop-color="#22D3EE" stop-opacity="0.85"/>
      <stop offset="0.5" stop-color="#E879F9" stop-opacity="0.65"/>
      <stop offset="1" stop-color="#34D399" stop-opacity="0.7"/>
    </linearGradient>
    <linearGradient id="g2" x1="180" y1="180" x2="1020" y2="540" gradientUnits="userSpaceOnUse">
      <stop stop-color="white" stop-opacity="0.12"/>
      <stop offset="1" stop-color="white" stop-opacity="0.02"/>
    </linearGradient>
    <filter id="blur" x="-20%" y="-20%" width="140%" height="140%">
      <feGaussianBlur stdDeviation="22"/>
    </filter>
  </defs>

  <circle cx="260" cy="520" r="220" fill="#22D3EE" fill-opacity="0.18" filter="url(#blur)"/>
  <circle cx="920" cy="220" r="240" fill="#E879F9" fill-opacity="0.15" filter="url(#blur)"/>
  <circle cx="820" cy="560" r="260" fill="#34D399" fill-opacity="0.12" filter="url(#blur)"/>

  <rect x="120" y="110" width="960" height="500" rx="28" fill="url(#g2)" stroke="white" stroke-opacity="0.12"/>
  <rect x="160" y="150" width="880" height="64" rx="18" fill="#05070D" fill-opacity="0.55" stroke="white" stroke-opacity="0.10"/>

  <circle cx="190" cy="182" r="6" fill="#F87171" fill-opacity="0.8"/>
  <circle cx="212" cy="182" r="6" fill="#FBBF24" fill-opacity="0.8"/>
  <circle cx="234" cy="182" r="6" fill="#34D399" fill-opacity="0.8"/>

  <text x="280" y="188" fill="white" fill-opacity="0.85" font-family="ui-sans-serif, system-ui, -apple-system" font-size="18">
    Plugando IA • automação • agentes • Next.js
  </text>

  <rect x="170" y="245" width="340" height="330" rx="20" fill="#05070D" fill-opacity="0.45" stroke="white" stroke-opacity="0.10"/>
  <rect x="200" y="280" width="280" height="62" rx="16" fill="url(#g1)" fill-opacity="0.22" stroke="white" stroke-opacity="0.12"/>
  <text x="225" y="317" fill="white" fill-opacity="0.92" font-family="ui-sans-serif, system-ui, -apple-system" font-size="16">
    Trigger → Workflow (n8n)
  </text>

  <rect x="200" y="360" width="280" height="62" rx="16" fill="url(#g1)" fill-opacity="0.16" stroke="white" stroke-opacity="0.12"/>
  <text x="225" y="397" fill="white" fill-opacity="0.88" font-family="ui-sans-serif, system-ui, -apple-system" font-size="16">
    HTTP Request → API
  </text>

  <rect x="200" y="440" width="280" height="62" rx="16" fill="url(#g1)" fill-opacity="0.13" stroke="white" stroke-opacity="0.12"/>
  <text x="225" y="477" fill="white" fill-opacity="0.86" font-family="ui-sans-serif, system-ui, -apple-system" font-size="16">
    Code Node → lógica
  </text>

  <path d="M480 311 C540 311, 560 311, 620 311" stroke="white" stroke-opacity="0.18" stroke-width="3" stroke-linecap="round"/>
  <path d="M480 391 C540 391, 560 391, 620 391" stroke="white" stroke-opacity="0.18" stroke-width="3" stroke-linecap="round"/>
  <path d="M480 471 C540 471, 560 471, 620 471" stroke="white" stroke-opacity="0.18" stroke-width="3" stroke-linecap="round"/>

  <rect x="610" y="245" width="420" height="330" rx="20" fill="#05070D" fill-opacity="0.45" stroke="white" stroke-opacity="0.10"/>
  <text x="645" y="290" fill="#22D3EE" fill-opacity="0.9" font-family="ui-monospace, SFMono-Regular, Menlo, Monaco" font-size="14">
    export async function POST()
  </text>
  <text x="645" y="320" fill="white" fill-opacity="0.82" font-family="ui-monospace, SFMono-Regular, Menlo, Monaco" font-size="14">
    { const ctx = await loadMemory();
  </text>
  <text x="645" y="350" fill="white" fill-opacity="0.82" font-family="ui-monospace, SFMono-Regular, Menlo, Monaco" font-size="14">
      const tools = [search, email];
  </text>
  <text x="645" y="380" fill="#E879F9" fill-opacity="0.92" font-family="ui-monospace, SFMono-Regular, Menlo, Monaco" font-size="14">
      const res = await openai.chat.completions...
  </text>
  <text x="645" y="410" fill="white" fill-opacity="0.82" font-family="ui-monospace, SFMono-Regular, Menlo, Monaco" font-size="14">
      return Response.json(res); }
  </text>

  <rect x="610" y="455" width="182" height="44" rx="14" fill="url(#g1)" fill-opacity="0.18" stroke="white" stroke-opacity="0.12"/>
  <text x="628" y="483" fill="white" fill-opacity="0.9" font-family="ui-sans-serif, system-ui, -apple-system" font-size="14">
    RAG + PostgreSQL
  </text>
  <rect x="800" y="455" width="230" height="44" rx="14" fill="url(#g1)" fill-opacity="0.14" stroke="white" stroke-opacity="0.12"/>
  <text x="818" y="483" fill="white" fill-opacity="0.9" font-family="ui-sans-serif, system-ui, -apple-system" font-size="14">
    SaaS • pagamento • deploy
  </text>
</svg>
